<mxfile host="app.diagrams.net" agent="Mozilla/5.0 (Windows NT 10.0; Win64; x64) AppleWebKit/537.36 (KHTML, like Gecko) Chrome/135.0.0.0 Safari/537.36" version="26.2.12">
  <diagram name="Page-1" id="WNzBvePf3QDAUcIBkwJz">
    <mxGraphModel dx="1898" dy="1131" grid="1" gridSize="10" guides="1" tooltips="1" connect="1" arrows="1" fold="1" page="1" pageScale="1" pageWidth="850" pageHeight="1100" math="0" shadow="0">
      <root>
        <mxCell id="0" />
        <mxCell id="1" parent="0" />
        <mxCell id="-fsIMlW8abiKfvNUh4bt-31" value="" style="rounded=0;whiteSpace=wrap;html=1;gradientDirection=radial;fontSize=30;strokeWidth=3;" vertex="1" parent="1">
          <mxGeometry x="160" y="480" width="1080" height="500" as="geometry" />
        </mxCell>
        <mxCell id="-fsIMlW8abiKfvNUh4bt-28" style="edgeStyle=orthogonalEdgeStyle;rounded=0;orthogonalLoop=1;jettySize=auto;html=1;entryX=0;entryY=0.5;entryDx=0;entryDy=0;strokeWidth=3;fontSize=30;" edge="1" parent="1">
          <mxGeometry relative="1" as="geometry">
            <mxPoint x="369" y="600" as="sourcePoint" />
            <mxPoint x="589" y="720" as="targetPoint" />
            <Array as="points">
              <mxPoint x="369" y="720" />
            </Array>
          </mxGeometry>
        </mxCell>
        <mxCell id="-fsIMlW8abiKfvNUh4bt-18" value="RTL" style="rounded=1;whiteSpace=wrap;html=1;strokeWidth=3;fontSize=30;fillColor=#d5e8d4;strokeColor=#82b366;" vertex="1" parent="1">
          <mxGeometry x="240" y="520" width="270" height="80" as="geometry" />
        </mxCell>
        <mxCell id="-fsIMlW8abiKfvNUh4bt-27" value="" style="edgeStyle=orthogonalEdgeStyle;rounded=0;orthogonalLoop=1;jettySize=auto;html=1;strokeWidth=3;fontSize=30;" edge="1" parent="1" source="-fsIMlW8abiKfvNUh4bt-19" target="-fsIMlW8abiKfvNUh4bt-24">
          <mxGeometry relative="1" as="geometry" />
        </mxCell>
        <mxCell id="-fsIMlW8abiKfvNUh4bt-19" value="Technology Library" style="rounded=1;whiteSpace=wrap;html=1;strokeWidth=3;fontSize=30;fillColor=#d5e8d4;strokeColor=#82b366;" vertex="1" parent="1">
          <mxGeometry x="580" y="520" width="270" height="80" as="geometry" />
        </mxCell>
        <mxCell id="-fsIMlW8abiKfvNUh4bt-29" style="edgeStyle=orthogonalEdgeStyle;rounded=0;orthogonalLoop=1;jettySize=auto;html=1;entryX=1;entryY=0.5;entryDx=0;entryDy=0;strokeWidth=3;fontSize=30;" edge="1" parent="1" source="-fsIMlW8abiKfvNUh4bt-20" target="-fsIMlW8abiKfvNUh4bt-24">
          <mxGeometry relative="1" as="geometry">
            <Array as="points">
              <mxPoint x="1040" y="720" />
            </Array>
          </mxGeometry>
        </mxCell>
        <mxCell id="-fsIMlW8abiKfvNUh4bt-20" value="Constraints" style="rounded=1;whiteSpace=wrap;html=1;strokeWidth=3;fontSize=30;fillColor=#d5e8d4;strokeColor=#82b366;" vertex="1" parent="1">
          <mxGeometry x="900" y="520" width="270" height="80" as="geometry" />
        </mxCell>
        <mxCell id="-fsIMlW8abiKfvNUh4bt-23" value="Netlist" style="rounded=1;whiteSpace=wrap;html=1;strokeWidth=3;fontSize=30;fillColor=#d5e8d4;strokeColor=#82b366;" vertex="1" parent="1">
          <mxGeometry x="580" y="840" width="270" height="80" as="geometry" />
        </mxCell>
        <mxCell id="-fsIMlW8abiKfvNUh4bt-30" value="" style="edgeStyle=orthogonalEdgeStyle;rounded=0;orthogonalLoop=1;jettySize=auto;html=1;strokeWidth=3;fontSize=30;" edge="1" parent="1" source="-fsIMlW8abiKfvNUh4bt-24" target="-fsIMlW8abiKfvNUh4bt-23">
          <mxGeometry relative="1" as="geometry" />
        </mxCell>
        <mxCell id="-fsIMlW8abiKfvNUh4bt-24" value="Logic Synthesis" style="rounded=1;whiteSpace=wrap;html=1;strokeWidth=3;fontSize=30;fillColor=#f8cecc;strokeColor=#b85450;" vertex="1" parent="1">
          <mxGeometry x="580" y="680" width="270" height="80" as="geometry" />
        </mxCell>
        <mxCell id="-fsIMlW8abiKfvNUh4bt-32" value="input" style="text;html=1;align=center;verticalAlign=middle;resizable=0;points=[];autosize=1;strokeColor=none;fillColor=none;fontSize=20;" vertex="1" parent="1">
          <mxGeometry x="410" y="670" width="70" height="40" as="geometry" />
        </mxCell>
        <mxCell id="-fsIMlW8abiKfvNUh4bt-33" value="input" style="text;html=1;align=center;verticalAlign=middle;resizable=0;points=[];autosize=1;strokeColor=none;fillColor=none;fontSize=20;" vertex="1" parent="1">
          <mxGeometry x="640" y="610" width="70" height="40" as="geometry" />
        </mxCell>
        <mxCell id="-fsIMlW8abiKfvNUh4bt-34" value="input" style="text;html=1;align=center;verticalAlign=middle;resizable=0;points=[];autosize=1;strokeColor=none;fillColor=none;fontSize=20;" vertex="1" parent="1">
          <mxGeometry x="900" y="670" width="70" height="40" as="geometry" />
        </mxCell>
        <mxCell id="-fsIMlW8abiKfvNUh4bt-35" value="output" style="text;html=1;align=center;verticalAlign=middle;resizable=0;points=[];autosize=1;strokeColor=none;fillColor=none;fontSize=20;" vertex="1" parent="1">
          <mxGeometry x="635" y="780" width="80" height="40" as="geometry" />
        </mxCell>
        <mxCell id="-fsIMlW8abiKfvNUh4bt-37" value="" style="rounded=0;whiteSpace=wrap;html=1;gradientDirection=radial;fontSize=30;strokeWidth=3;" vertex="1" parent="1">
          <mxGeometry x="160" y="1100" width="1080" height="500" as="geometry" />
        </mxCell>
        <mxCell id="-fsIMlW8abiKfvNUh4bt-38" style="edgeStyle=orthogonalEdgeStyle;rounded=0;orthogonalLoop=1;jettySize=auto;html=1;entryX=0;entryY=0.5;entryDx=0;entryDy=0;strokeWidth=3;fontSize=30;" edge="1" parent="1" source="-fsIMlW8abiKfvNUh4bt-39" target="-fsIMlW8abiKfvNUh4bt-46">
          <mxGeometry relative="1" as="geometry">
            <Array as="points">
              <mxPoint x="370" y="1340" />
            </Array>
          </mxGeometry>
        </mxCell>
        <mxCell id="-fsIMlW8abiKfvNUh4bt-39" value="Netlist" style="rounded=1;whiteSpace=wrap;html=1;strokeWidth=3;fontSize=30;fillColor=#d5e8d4;strokeColor=#82b366;" vertex="1" parent="1">
          <mxGeometry x="240" y="1140" width="270" height="80" as="geometry" />
        </mxCell>
        <mxCell id="-fsIMlW8abiKfvNUh4bt-40" value="" style="edgeStyle=orthogonalEdgeStyle;rounded=0;orthogonalLoop=1;jettySize=auto;html=1;strokeWidth=3;fontSize=30;" edge="1" parent="1" source="-fsIMlW8abiKfvNUh4bt-41" target="-fsIMlW8abiKfvNUh4bt-46">
          <mxGeometry relative="1" as="geometry" />
        </mxCell>
        <mxCell id="-fsIMlW8abiKfvNUh4bt-41" value="Technology Library" style="rounded=1;whiteSpace=wrap;html=1;strokeWidth=3;fontSize=30;fillColor=#d5e8d4;strokeColor=#82b366;" vertex="1" parent="1">
          <mxGeometry x="580" y="1140" width="270" height="80" as="geometry" />
        </mxCell>
        <mxCell id="-fsIMlW8abiKfvNUh4bt-42" style="edgeStyle=orthogonalEdgeStyle;rounded=0;orthogonalLoop=1;jettySize=auto;html=1;entryX=1;entryY=0.5;entryDx=0;entryDy=0;strokeWidth=3;fontSize=30;" edge="1" parent="1" source="-fsIMlW8abiKfvNUh4bt-43" target="-fsIMlW8abiKfvNUh4bt-46">
          <mxGeometry relative="1" as="geometry">
            <Array as="points">
              <mxPoint x="1040" y="1340" />
            </Array>
          </mxGeometry>
        </mxCell>
        <mxCell id="-fsIMlW8abiKfvNUh4bt-43" value="Constraints" style="rounded=1;whiteSpace=wrap;html=1;strokeWidth=3;fontSize=30;fillColor=#d5e8d4;strokeColor=#82b366;" vertex="1" parent="1">
          <mxGeometry x="900" y="1140" width="270" height="80" as="geometry" />
        </mxCell>
        <mxCell id="-fsIMlW8abiKfvNUh4bt-44" value="Timing Report" style="rounded=1;whiteSpace=wrap;html=1;strokeWidth=3;fontSize=30;fillColor=#d5e8d4;strokeColor=#82b366;" vertex="1" parent="1">
          <mxGeometry x="580" y="1460" width="270" height="80" as="geometry" />
        </mxCell>
        <mxCell id="-fsIMlW8abiKfvNUh4bt-45" value="" style="edgeStyle=orthogonalEdgeStyle;rounded=0;orthogonalLoop=1;jettySize=auto;html=1;strokeWidth=3;fontSize=30;" edge="1" parent="1" source="-fsIMlW8abiKfvNUh4bt-46" target="-fsIMlW8abiKfvNUh4bt-44">
          <mxGeometry relative="1" as="geometry" />
        </mxCell>
        <mxCell id="-fsIMlW8abiKfvNUh4bt-46" value="STA" style="rounded=1;whiteSpace=wrap;html=1;strokeWidth=3;fontSize=30;fillColor=#f8cecc;strokeColor=#b85450;" vertex="1" parent="1">
          <mxGeometry x="580" y="1300" width="270" height="80" as="geometry" />
        </mxCell>
        <mxCell id="-fsIMlW8abiKfvNUh4bt-47" value="input" style="text;html=1;align=center;verticalAlign=middle;resizable=0;points=[];autosize=1;strokeColor=none;fillColor=none;fontSize=20;" vertex="1" parent="1">
          <mxGeometry x="410" y="1290" width="70" height="40" as="geometry" />
        </mxCell>
        <mxCell id="-fsIMlW8abiKfvNUh4bt-48" value="input" style="text;html=1;align=center;verticalAlign=middle;resizable=0;points=[];autosize=1;strokeColor=none;fillColor=none;fontSize=20;" vertex="1" parent="1">
          <mxGeometry x="640" y="1230" width="70" height="40" as="geometry" />
        </mxCell>
        <mxCell id="-fsIMlW8abiKfvNUh4bt-49" value="input" style="text;html=1;align=center;verticalAlign=middle;resizable=0;points=[];autosize=1;strokeColor=none;fillColor=none;fontSize=20;" vertex="1" parent="1">
          <mxGeometry x="900" y="1290" width="70" height="40" as="geometry" />
        </mxCell>
        <mxCell id="-fsIMlW8abiKfvNUh4bt-50" value="output" style="text;html=1;align=center;verticalAlign=middle;resizable=0;points=[];autosize=1;strokeColor=none;fillColor=none;fontSize=20;" vertex="1" parent="1">
          <mxGeometry x="635" y="1400" width="80" height="40" as="geometry" />
        </mxCell>
      </root>
    </mxGraphModel>
  </diagram>
</mxfile>
